<svg width="512" height="512" viewBox="0 0 512 512" fill="none" xmlns="http://www.w3.org/2000/svg">
<rect x="12" y="12" width="488" height="488" rx="12" fill="#1E1E1E" stroke="white" stroke-width="24"/>
<path d="M244 314.625C244 316.958 243.583 319.125 242.75 321.125C241.917 323.125 240.75 324.875 239.25 326.375C237.833 327.792 236.125 328.917 234.125 329.75C232.208 330.583 230.125 331 227.875 331H154.375C150.375 331 146.083 330.542 141.5 329.625C137 328.708 132.542 327.25 128.125 325.25C123.708 323.167 119.417 320.583 115.25 317.5C111.167 314.333 107.583 310.542 104.5 306.125C101.417 301.625 98.9167 296.458 97 290.625C95.1667 284.792 94.25 278.208 94.25 270.875V195.875H126.75V270.875C126.75 275.125 127.458 278.958 128.875 282.375C130.375 285.708 132.375 288.583 134.875 291C137.375 293.417 140.292 295.292 143.625 296.625C147.042 297.875 150.708 298.5 154.625 298.5H211.5V195.875H244V314.625ZM424.25 331H391.75V256C391.75 251.75 391 247.958 389.5 244.625C388.083 241.208 386.125 238.292 383.625 235.875C381.125 233.458 378.167 231.625 374.75 230.375C371.417 229.042 367.792 228.375 363.875 228.375H307V331H274.5V212C274.5 209.75 274.917 207.667 275.75 205.75C276.583 203.75 277.75 202.042 279.25 200.625C280.75 199.125 282.5 197.958 284.5 197.125C286.5 196.292 288.625 195.875 290.875 195.875H364.125C368.208 195.875 372.5 196.333 377 197.25C381.583 198.167 386.083 199.667 390.5 201.75C395 203.75 399.25 206.333 403.25 209.5C407.333 212.583 410.917 216.375 414 220.875C417.167 225.292 419.667 230.417 421.5 236.25C423.333 242.083 424.25 248.667 424.25 256V331Z" fill="white"/>
</svg>
